<mxfile host="Electron" modified="2024-09-07T13:18:13.095Z" agent="Mozilla/5.0 (Windows NT 10.0; Win64; x64) AppleWebKit/537.36 (KHTML, like Gecko) draw.io/22.1.18 Chrome/120.0.6099.199 Electron/28.1.2 Safari/537.36" etag="WOhn5Avw2TqRZzA5usLC" version="22.1.18" type="device">
  <diagram name="Page-1" id="ESasSLX2_qwE582Av_hp">
    <mxGraphModel dx="1242" dy="2201" grid="1" gridSize="10" guides="1" tooltips="1" connect="1" arrows="1" fold="1" page="1" pageScale="1" pageWidth="850" pageHeight="1100" math="0" shadow="0">
      <root>
        <mxCell id="0" />
        <mxCell id="1" parent="0" />
        <mxCell id="V6knezV7HBV5Vt1ftG3A-1" value="" style="html=1;verticalLabelPosition=bottom;align=center;labelBackgroundColor=#ffffff;verticalAlign=top;strokeWidth=2;strokeColor=#0080F0;shadow=0;dashed=0;shape=mxgraph.ios7.icons.home;" parent="1" vertex="1">
          <mxGeometry x="120" y="70" width="60" height="50" as="geometry" />
        </mxCell>
        <mxCell id="V6knezV7HBV5Vt1ftG3A-2" value="" style="html=1;verticalLabelPosition=bottom;align=center;labelBackgroundColor=#ffffff;verticalAlign=top;strokeWidth=2;strokeColor=#0080F0;shadow=0;dashed=0;shape=mxgraph.ios7.icons.home;" parent="1" vertex="1">
          <mxGeometry x="720" y="70" width="60" height="50" as="geometry" />
        </mxCell>
        <mxCell id="V6knezV7HBV5Vt1ftG3A-3" value="" style="html=1;verticalLabelPosition=bottom;align=center;labelBackgroundColor=#ffffff;verticalAlign=top;strokeWidth=2;strokeColor=#0080F0;shadow=0;dashed=0;shape=mxgraph.ios7.icons.home;" parent="1" vertex="1">
          <mxGeometry x="220" y="70" width="60" height="50" as="geometry" />
        </mxCell>
        <mxCell id="V6knezV7HBV5Vt1ftG3A-4" value="" style="html=1;verticalLabelPosition=bottom;align=center;labelBackgroundColor=#ffffff;verticalAlign=top;strokeWidth=2;strokeColor=#0080F0;shadow=0;dashed=0;shape=mxgraph.ios7.icons.home;" parent="1" vertex="1">
          <mxGeometry x="320" y="70" width="60" height="50" as="geometry" />
        </mxCell>
        <mxCell id="V6knezV7HBV5Vt1ftG3A-5" value="" style="html=1;verticalLabelPosition=bottom;align=center;labelBackgroundColor=#ffffff;verticalAlign=top;strokeWidth=2;strokeColor=#0080F0;shadow=0;dashed=0;shape=mxgraph.ios7.icons.home;" parent="1" vertex="1">
          <mxGeometry x="420" y="70" width="60" height="50" as="geometry" />
        </mxCell>
        <mxCell id="V6knezV7HBV5Vt1ftG3A-6" value="" style="html=1;verticalLabelPosition=bottom;align=center;labelBackgroundColor=#ffffff;verticalAlign=top;strokeWidth=2;strokeColor=#0080F0;shadow=0;dashed=0;shape=mxgraph.ios7.icons.home;" parent="1" vertex="1">
          <mxGeometry x="520" y="70" width="60" height="50" as="geometry" />
        </mxCell>
        <mxCell id="V6knezV7HBV5Vt1ftG3A-7" value="" style="html=1;verticalLabelPosition=bottom;align=center;labelBackgroundColor=#ffffff;verticalAlign=top;strokeWidth=2;strokeColor=#0080F0;shadow=0;dashed=0;shape=mxgraph.ios7.icons.home;" parent="1" vertex="1">
          <mxGeometry x="620" y="70" width="60" height="50" as="geometry" />
        </mxCell>
        <mxCell id="V6knezV7HBV5Vt1ftG3A-8" value="&lt;b&gt;&lt;font style=&quot;font-size: 18px;&quot;&gt;6&lt;/font&gt;&lt;/b&gt;" style="text;html=1;strokeColor=none;fillColor=none;align=center;verticalAlign=middle;whiteSpace=wrap;rounded=0;" parent="1" vertex="1">
          <mxGeometry x="120" y="130" width="60" height="30" as="geometry" />
        </mxCell>
        <mxCell id="V6knezV7HBV5Vt1ftG3A-11" value="&lt;b&gt;&lt;font style=&quot;font-size: 18px;&quot;&gt;7&lt;/font&gt;&lt;/b&gt;" style="text;html=1;strokeColor=none;fillColor=none;align=center;verticalAlign=middle;whiteSpace=wrap;rounded=0;" parent="1" vertex="1">
          <mxGeometry x="220" y="130" width="60" height="30" as="geometry" />
        </mxCell>
        <mxCell id="V6knezV7HBV5Vt1ftG3A-12" value="&lt;b&gt;&lt;font style=&quot;font-size: 18px;&quot;&gt;1&lt;/font&gt;&lt;/b&gt;" style="text;html=1;strokeColor=none;fillColor=none;align=center;verticalAlign=middle;whiteSpace=wrap;rounded=0;" parent="1" vertex="1">
          <mxGeometry x="320" y="130" width="60" height="30" as="geometry" />
        </mxCell>
        <mxCell id="V6knezV7HBV5Vt1ftG3A-13" value="&lt;b&gt;&lt;font style=&quot;font-size: 18px;&quot;&gt;30&lt;/font&gt;&lt;/b&gt;" style="text;html=1;strokeColor=none;fillColor=none;align=center;verticalAlign=middle;whiteSpace=wrap;rounded=0;" parent="1" vertex="1">
          <mxGeometry x="420" y="130" width="60" height="30" as="geometry" />
        </mxCell>
        <mxCell id="V6knezV7HBV5Vt1ftG3A-14" value="&lt;b&gt;&lt;font style=&quot;font-size: 18px;&quot;&gt;8&lt;/font&gt;&lt;/b&gt;" style="text;html=1;strokeColor=none;fillColor=none;align=center;verticalAlign=middle;whiteSpace=wrap;rounded=0;" parent="1" vertex="1">
          <mxGeometry x="520" y="130" width="60" height="30" as="geometry" />
        </mxCell>
        <mxCell id="V6knezV7HBV5Vt1ftG3A-15" value="&lt;b&gt;&lt;font style=&quot;font-size: 18px;&quot;&gt;2&lt;/font&gt;&lt;/b&gt;" style="text;html=1;strokeColor=none;fillColor=none;align=center;verticalAlign=middle;whiteSpace=wrap;rounded=0;" parent="1" vertex="1">
          <mxGeometry x="620" y="130" width="60" height="30" as="geometry" />
        </mxCell>
        <mxCell id="V6knezV7HBV5Vt1ftG3A-16" value="&lt;b&gt;&lt;font style=&quot;font-size: 18px;&quot;&gt;4&lt;/font&gt;&lt;/b&gt;" style="text;html=1;strokeColor=none;fillColor=none;align=center;verticalAlign=middle;whiteSpace=wrap;rounded=0;" parent="1" vertex="1">
          <mxGeometry x="720" y="130" width="60" height="30" as="geometry" />
        </mxCell>
        <mxCell id="V6knezV7HBV5Vt1ftG3A-17" value="&lt;font style=&quot;font-size: 24px;&quot;&gt;&lt;b&gt;The Block&lt;/b&gt;&lt;/font&gt;" style="text;html=1;strokeColor=none;fillColor=none;align=center;verticalAlign=middle;whiteSpace=wrap;rounded=0;" parent="1" vertex="1">
          <mxGeometry x="340" y="-30" width="160" height="30" as="geometry" />
        </mxCell>
        <mxCell id="V6knezV7HBV5Vt1ftG3A-18" value="&lt;font style=&quot;font-size: 14px;&quot;&gt;&lt;b&gt;Available thieving strategies&lt;/b&gt;&lt;/font&gt;" style="text;html=1;strokeColor=none;fillColor=none;align=center;verticalAlign=middle;whiteSpace=wrap;rounded=0;" parent="1" vertex="1">
          <mxGeometry x="20" y="220" width="200" height="30" as="geometry" />
        </mxCell>
        <mxCell id="V6knezV7HBV5Vt1ftG3A-19" value="" style="html=1;verticalLabelPosition=bottom;align=center;labelBackgroundColor=#ffffff;verticalAlign=top;strokeWidth=2;strokeColor=#0080F0;shadow=0;dashed=0;shape=mxgraph.ios7.icons.home;" parent="1" vertex="1">
          <mxGeometry x="180" y="300" width="60" height="50" as="geometry" />
        </mxCell>
        <mxCell id="V6knezV7HBV5Vt1ftG3A-20" value="" style="html=1;verticalLabelPosition=bottom;align=center;labelBackgroundColor=#ffffff;verticalAlign=top;strokeWidth=2;strokeColor=#0080F0;shadow=0;dashed=0;shape=mxgraph.ios7.icons.home;" parent="1" vertex="1">
          <mxGeometry x="780" y="300" width="60" height="50" as="geometry" />
        </mxCell>
        <mxCell id="V6knezV7HBV5Vt1ftG3A-21" value="" style="html=1;verticalLabelPosition=bottom;align=center;labelBackgroundColor=#ffffff;verticalAlign=top;strokeWidth=2;strokeColor=#0080F0;shadow=0;dashed=0;shape=mxgraph.ios7.icons.home;fillColor=#CCCCCC;" parent="1" vertex="1">
          <mxGeometry x="280" y="300" width="60" height="50" as="geometry" />
        </mxCell>
        <mxCell id="V6knezV7HBV5Vt1ftG3A-22" value="" style="html=1;verticalLabelPosition=bottom;align=center;labelBackgroundColor=#ffffff;verticalAlign=top;strokeWidth=2;strokeColor=#0080F0;shadow=0;dashed=0;shape=mxgraph.ios7.icons.home;" parent="1" vertex="1">
          <mxGeometry x="380" y="300" width="60" height="50" as="geometry" />
        </mxCell>
        <mxCell id="V6knezV7HBV5Vt1ftG3A-23" value="" style="html=1;verticalLabelPosition=bottom;align=center;labelBackgroundColor=#ffffff;verticalAlign=top;strokeWidth=2;strokeColor=#0080F0;shadow=0;dashed=0;shape=mxgraph.ios7.icons.home;" parent="1" vertex="1">
          <mxGeometry x="480" y="300" width="60" height="50" as="geometry" />
        </mxCell>
        <mxCell id="V6knezV7HBV5Vt1ftG3A-24" value="" style="html=1;verticalLabelPosition=bottom;align=center;labelBackgroundColor=#ffffff;verticalAlign=top;strokeWidth=2;strokeColor=#0080F0;shadow=0;dashed=0;shape=mxgraph.ios7.icons.home;" parent="1" vertex="1">
          <mxGeometry x="580" y="300" width="60" height="50" as="geometry" />
        </mxCell>
        <mxCell id="V6knezV7HBV5Vt1ftG3A-25" value="" style="html=1;verticalLabelPosition=bottom;align=center;labelBackgroundColor=#ffffff;verticalAlign=top;strokeWidth=2;strokeColor=#0080F0;shadow=0;dashed=0;shape=mxgraph.ios7.icons.home;" parent="1" vertex="1">
          <mxGeometry x="680" y="300" width="60" height="50" as="geometry" />
        </mxCell>
        <mxCell id="V6knezV7HBV5Vt1ftG3A-26" value="" style="html=1;verticalLabelPosition=bottom;align=center;labelBackgroundColor=#ffffff;verticalAlign=top;strokeWidth=2;strokeColor=#0080F0;shadow=0;dashed=0;shape=mxgraph.ios7.icons.home;fillColor=#CCCCCC;" parent="1" vertex="1">
          <mxGeometry x="180" y="460" width="60" height="50" as="geometry" />
        </mxCell>
        <mxCell id="V6knezV7HBV5Vt1ftG3A-27" value="" style="html=1;verticalLabelPosition=bottom;align=center;labelBackgroundColor=#ffffff;verticalAlign=top;strokeWidth=2;strokeColor=#0080F0;shadow=0;dashed=0;shape=mxgraph.ios7.icons.home;" parent="1" vertex="1">
          <mxGeometry x="780" y="460" width="60" height="50" as="geometry" />
        </mxCell>
        <mxCell id="V6knezV7HBV5Vt1ftG3A-28" value="" style="html=1;verticalLabelPosition=bottom;align=center;labelBackgroundColor=#ffffff;verticalAlign=top;strokeWidth=2;strokeColor=#0080F0;shadow=0;dashed=0;shape=mxgraph.ios7.icons.home;" parent="1" vertex="1">
          <mxGeometry x="280" y="460" width="60" height="50" as="geometry" />
        </mxCell>
        <mxCell id="V6knezV7HBV5Vt1ftG3A-29" value="" style="html=1;verticalLabelPosition=bottom;align=center;labelBackgroundColor=#ffffff;verticalAlign=top;strokeWidth=2;strokeColor=#0080F0;shadow=0;dashed=0;shape=mxgraph.ios7.icons.home;" parent="1" vertex="1">
          <mxGeometry x="380" y="460" width="60" height="50" as="geometry" />
        </mxCell>
        <mxCell id="V6knezV7HBV5Vt1ftG3A-30" value="" style="html=1;verticalLabelPosition=bottom;align=center;labelBackgroundColor=#ffffff;verticalAlign=top;strokeWidth=2;strokeColor=#0080F0;shadow=0;dashed=0;shape=mxgraph.ios7.icons.home;" parent="1" vertex="1">
          <mxGeometry x="480" y="460" width="60" height="50" as="geometry" />
        </mxCell>
        <mxCell id="V6knezV7HBV5Vt1ftG3A-31" value="" style="html=1;verticalLabelPosition=bottom;align=center;labelBackgroundColor=#ffffff;verticalAlign=top;strokeWidth=2;strokeColor=#0080F0;shadow=0;dashed=0;shape=mxgraph.ios7.icons.home;" parent="1" vertex="1">
          <mxGeometry x="580" y="460" width="60" height="50" as="geometry" />
        </mxCell>
        <mxCell id="V6knezV7HBV5Vt1ftG3A-32" value="" style="html=1;verticalLabelPosition=bottom;align=center;labelBackgroundColor=#ffffff;verticalAlign=top;strokeWidth=2;strokeColor=#0080F0;shadow=0;dashed=0;shape=mxgraph.ios7.icons.home;" parent="1" vertex="1">
          <mxGeometry x="680" y="460" width="60" height="50" as="geometry" />
        </mxCell>
        <mxCell id="V6knezV7HBV5Vt1ftG3A-34" value="&lt;span style=&quot;font-size: 14px;&quot;&gt;Solution: max(option1, option2)&lt;br&gt;&lt;/span&gt;" style="text;html=1;strokeColor=none;fillColor=none;align=center;verticalAlign=middle;whiteSpace=wrap;rounded=0;" parent="1" vertex="1">
          <mxGeometry x="20" y="540" width="210" height="50" as="geometry" />
        </mxCell>
        <mxCell id="V6knezV7HBV5Vt1ftG3A-35" value="&lt;span style=&quot;font-size: 14px;&quot;&gt;Steal from the first house&lt;br&gt;6 + f(5)&lt;/span&gt;" style="text;html=1;strokeColor=none;fillColor=none;align=left;verticalAlign=middle;whiteSpace=wrap;rounded=0;" parent="1" vertex="1">
          <mxGeometry x="20" y="320" width="120" height="50" as="geometry" />
        </mxCell>
        <mxCell id="V6knezV7HBV5Vt1ftG3A-36" value="" style="shape=curlyBracket;whiteSpace=wrap;html=1;rounded=1;flipH=1;labelPosition=right;verticalLabelPosition=middle;align=left;verticalAlign=middle;rotation=-90;" parent="1" vertex="1">
          <mxGeometry x="590" y="55" width="20" height="430" as="geometry" />
        </mxCell>
        <mxCell id="V6knezV7HBV5Vt1ftG3A-37" value="" style="shape=curlyBracket;whiteSpace=wrap;html=1;rounded=1;flipH=1;labelPosition=right;verticalLabelPosition=middle;align=left;verticalAlign=middle;rotation=-90;" parent="1" vertex="1">
          <mxGeometry x="550" y="180" width="20" height="510" as="geometry" />
        </mxCell>
        <mxCell id="V6knezV7HBV5Vt1ftG3A-39" value="&lt;span style=&quot;font-size: 14px;&quot;&gt;Remaining 6&lt;/span&gt;" style="text;html=1;strokeColor=none;fillColor=none;align=center;verticalAlign=middle;whiteSpace=wrap;rounded=0;" parent="1" vertex="1">
          <mxGeometry x="480" y="400" width="160" height="20" as="geometry" />
        </mxCell>
        <mxCell id="V6knezV7HBV5Vt1ftG3A-40" value="&lt;span style=&quot;font-size: 14px;&quot;&gt;Remaining 5&lt;/span&gt;" style="text;html=1;strokeColor=none;fillColor=none;align=center;verticalAlign=middle;whiteSpace=wrap;rounded=0;" parent="1" vertex="1">
          <mxGeometry x="520" y="230" width="160" height="20" as="geometry" />
        </mxCell>
        <mxCell id="V6knezV7HBV5Vt1ftG3A-41" value="&lt;div style=&quot;text-align: left;&quot;&gt;&lt;span style=&quot;font-size: 14px; background-color: initial;&quot;&gt;Skip the first house&lt;/span&gt;&lt;/div&gt;&lt;span style=&quot;font-size: 14px;&quot;&gt;&lt;div style=&quot;text-align: left;&quot;&gt;&lt;span style=&quot;background-color: initial;&quot;&gt;f(6)&lt;/span&gt;&lt;/div&gt;&lt;/span&gt;" style="text;html=1;strokeColor=none;fillColor=none;align=center;verticalAlign=middle;whiteSpace=wrap;rounded=0;" parent="1" vertex="1">
          <mxGeometry x="10" y="470" width="160" height="50" as="geometry" />
        </mxCell>
        <mxCell id="V6knezV7HBV5Vt1ftG3A-51" style="rounded=0;orthogonalLoop=1;jettySize=auto;html=1;exitX=0.5;exitY=1;exitDx=0;exitDy=0;entryX=0.5;entryY=0;entryDx=0;entryDy=0;" parent="1" source="V6knezV7HBV5Vt1ftG3A-42" target="V6knezV7HBV5Vt1ftG3A-43" edge="1">
          <mxGeometry relative="1" as="geometry" />
        </mxCell>
        <mxCell id="V6knezV7HBV5Vt1ftG3A-52" style="rounded=0;orthogonalLoop=1;jettySize=auto;html=1;exitX=0.5;exitY=1;exitDx=0;exitDy=0;entryX=0.5;entryY=0;entryDx=0;entryDy=0;" parent="1" source="V6knezV7HBV5Vt1ftG3A-42" target="V6knezV7HBV5Vt1ftG3A-44" edge="1">
          <mxGeometry relative="1" as="geometry" />
        </mxCell>
        <mxCell id="V6knezV7HBV5Vt1ftG3A-42" value="MaxValue(0)" style="rounded=1;whiteSpace=wrap;html=1;align=center;fillColor=#CCE5FF;" parent="1" vertex="1">
          <mxGeometry x="300" y="680" width="80" height="40" as="geometry" />
        </mxCell>
        <mxCell id="V6knezV7HBV5Vt1ftG3A-53" style="rounded=0;orthogonalLoop=1;jettySize=auto;html=1;exitX=0.5;exitY=1;exitDx=0;exitDy=0;entryX=0.5;entryY=0;entryDx=0;entryDy=0;" parent="1" source="V6knezV7HBV5Vt1ftG3A-43" target="V6knezV7HBV5Vt1ftG3A-45" edge="1">
          <mxGeometry relative="1" as="geometry" />
        </mxCell>
        <mxCell id="V6knezV7HBV5Vt1ftG3A-54" style="rounded=0;orthogonalLoop=1;jettySize=auto;html=1;exitX=0.5;exitY=1;exitDx=0;exitDy=0;entryX=0.5;entryY=0;entryDx=0;entryDy=0;" parent="1" source="V6knezV7HBV5Vt1ftG3A-43" target="V6knezV7HBV5Vt1ftG3A-48" edge="1">
          <mxGeometry relative="1" as="geometry" />
        </mxCell>
        <mxCell id="V6knezV7HBV5Vt1ftG3A-43" value="MaxValue(2)" style="rounded=1;whiteSpace=wrap;html=1;align=center;fillColor=#CCE5FF;" parent="1" vertex="1">
          <mxGeometry x="140" y="800" width="80" height="40" as="geometry" />
        </mxCell>
        <mxCell id="V6knezV7HBV5Vt1ftG3A-55" style="rounded=0;orthogonalLoop=1;jettySize=auto;html=1;exitX=0.5;exitY=1;exitDx=0;exitDy=0;entryX=0.5;entryY=0;entryDx=0;entryDy=0;" parent="1" source="V6knezV7HBV5Vt1ftG3A-44" target="V6knezV7HBV5Vt1ftG3A-49" edge="1">
          <mxGeometry relative="1" as="geometry" />
        </mxCell>
        <mxCell id="V6knezV7HBV5Vt1ftG3A-56" style="rounded=0;orthogonalLoop=1;jettySize=auto;html=1;exitX=0.5;exitY=1;exitDx=0;exitDy=0;entryX=0.5;entryY=0;entryDx=0;entryDy=0;" parent="1" source="V6knezV7HBV5Vt1ftG3A-44" target="V6knezV7HBV5Vt1ftG3A-46" edge="1">
          <mxGeometry relative="1" as="geometry" />
        </mxCell>
        <mxCell id="V6knezV7HBV5Vt1ftG3A-44" value="MaxValue(1)" style="rounded=1;whiteSpace=wrap;html=1;align=center;fillColor=#FFFFCC;" parent="1" vertex="1">
          <mxGeometry x="460" y="800" width="80" height="40" as="geometry" />
        </mxCell>
        <mxCell id="V6knezV7HBV5Vt1ftG3A-45" value="MaxValue(4)" style="rounded=1;whiteSpace=wrap;html=1;align=center;fillColor=#CCE5FF;" parent="1" vertex="1">
          <mxGeometry x="60" y="920" width="80" height="40" as="geometry" />
        </mxCell>
        <mxCell id="V6knezV7HBV5Vt1ftG3A-46" value="MaxValue(2)" style="rounded=1;whiteSpace=wrap;html=1;align=center;fillColor=#FFFFCC;" parent="1" vertex="1">
          <mxGeometry x="540" y="920" width="80" height="40" as="geometry" />
        </mxCell>
        <mxCell id="V6knezV7HBV5Vt1ftG3A-47" value="Does not skip first house" style="rounded=1;whiteSpace=wrap;html=1;align=center;fillColor=#CCE5FF;" parent="1" vertex="1">
          <mxGeometry x="700" y="680" width="80" height="40" as="geometry" />
        </mxCell>
        <mxCell id="V6knezV7HBV5Vt1ftG3A-48" value="MaxValue(3)" style="rounded=1;whiteSpace=wrap;html=1;align=center;fillColor=#FFFFCC;" parent="1" vertex="1">
          <mxGeometry x="220" y="920" width="80" height="40" as="geometry" />
        </mxCell>
        <mxCell id="V6knezV7HBV5Vt1ftG3A-49" value="MaxValue(3)" style="rounded=1;whiteSpace=wrap;html=1;align=center;fillColor=#CCE5FF;" parent="1" vertex="1">
          <mxGeometry x="380" y="920" width="80" height="40" as="geometry" />
        </mxCell>
        <mxCell id="V6knezV7HBV5Vt1ftG3A-57" value="Skips first house" style="rounded=1;whiteSpace=wrap;html=1;align=center;fillColor=#FFFFCC;" parent="1" vertex="1">
          <mxGeometry x="700" y="760" width="80" height="40" as="geometry" />
        </mxCell>
        <mxCell id="V6knezV7HBV5Vt1ftG3A-58" value="H1" style="text;html=1;strokeColor=none;fillColor=none;align=center;verticalAlign=middle;whiteSpace=wrap;rounded=0;" parent="1" vertex="1">
          <mxGeometry x="320" y="650" width="40" height="30" as="geometry" />
        </mxCell>
        <mxCell id="V6knezV7HBV5Vt1ftG3A-59" value="H3" style="text;html=1;strokeColor=none;fillColor=none;align=center;verticalAlign=middle;whiteSpace=wrap;rounded=0;" parent="1" vertex="1">
          <mxGeometry x="580" y="890" width="40" height="30" as="geometry" />
        </mxCell>
        <mxCell id="V6knezV7HBV5Vt1ftG3A-60" value="H4" style="text;html=1;strokeColor=none;fillColor=none;align=center;verticalAlign=middle;whiteSpace=wrap;rounded=0;" parent="1" vertex="1">
          <mxGeometry x="380" y="890" width="40" height="30" as="geometry" />
        </mxCell>
        <mxCell id="V6knezV7HBV5Vt1ftG3A-61" value="H4" style="text;html=1;strokeColor=none;fillColor=none;align=center;verticalAlign=middle;whiteSpace=wrap;rounded=0;" parent="1" vertex="1">
          <mxGeometry x="260" y="890" width="40" height="30" as="geometry" />
        </mxCell>
        <mxCell id="V6knezV7HBV5Vt1ftG3A-62" value="H5" style="text;html=1;strokeColor=none;fillColor=none;align=center;verticalAlign=middle;whiteSpace=wrap;rounded=0;" parent="1" vertex="1">
          <mxGeometry x="60" y="890" width="40" height="30" as="geometry" />
        </mxCell>
        <mxCell id="V6knezV7HBV5Vt1ftG3A-63" value="H2" style="text;html=1;strokeColor=none;fillColor=none;align=center;verticalAlign=middle;whiteSpace=wrap;rounded=0;" parent="1" vertex="1">
          <mxGeometry x="500" y="770" width="40" height="30" as="geometry" />
        </mxCell>
        <mxCell id="V6knezV7HBV5Vt1ftG3A-64" value="H3" style="text;html=1;strokeColor=none;fillColor=none;align=center;verticalAlign=middle;whiteSpace=wrap;rounded=0;" parent="1" vertex="1">
          <mxGeometry x="140" y="770" width="40" height="30" as="geometry" />
        </mxCell>
        <mxCell id="V6knezV7HBV5Vt1ftG3A-65" value="&lt;i&gt;Skip H3&lt;/i&gt;" style="text;html=1;strokeColor=none;fillColor=none;align=center;verticalAlign=middle;whiteSpace=wrap;rounded=0;" parent="1" vertex="1">
          <mxGeometry x="220" y="850" width="60" height="30" as="geometry" />
        </mxCell>
        <mxCell id="V6knezV7HBV5Vt1ftG3A-66" value="&lt;i&gt;Skip H4&lt;/i&gt;" style="text;html=1;strokeColor=none;fillColor=none;align=center;verticalAlign=middle;whiteSpace=wrap;rounded=0;" parent="1" vertex="1">
          <mxGeometry x="70" y="850" width="60" height="30" as="geometry" />
        </mxCell>
        <mxCell id="V6knezV7HBV5Vt1ftG3A-67" value="&lt;i&gt;Skip H3&lt;/i&gt;" style="text;html=1;strokeColor=none;fillColor=none;align=center;verticalAlign=middle;whiteSpace=wrap;rounded=0;" parent="1" vertex="1">
          <mxGeometry x="400" y="850" width="60" height="30" as="geometry" />
        </mxCell>
        <mxCell id="V6knezV7HBV5Vt1ftG3A-68" value="&lt;i&gt;Skip H2&lt;/i&gt;" style="text;html=1;strokeColor=none;fillColor=none;align=center;verticalAlign=middle;whiteSpace=wrap;rounded=0;" parent="1" vertex="1">
          <mxGeometry x="550" y="860" width="60" height="30" as="geometry" />
        </mxCell>
        <mxCell id="V6knezV7HBV5Vt1ftG3A-69" value="&lt;i&gt;Skip H1&lt;/i&gt;" style="text;html=1;strokeColor=none;fillColor=none;align=center;verticalAlign=middle;whiteSpace=wrap;rounded=0;" parent="1" vertex="1">
          <mxGeometry x="420" y="730" width="60" height="30" as="geometry" />
        </mxCell>
        <mxCell id="V6knezV7HBV5Vt1ftG3A-70" value="&lt;i&gt;Skip H2&lt;/i&gt;" style="text;html=1;strokeColor=none;fillColor=none;align=center;verticalAlign=middle;whiteSpace=wrap;rounded=0;" parent="1" vertex="1">
          <mxGeometry x="200" y="730" width="60" height="30" as="geometry" />
        </mxCell>
        <mxCell id="WJY-mWX5D2TMFrCSwzIJ-1" value="" style="ellipse;whiteSpace=wrap;html=1;fillColor=none;strokeColor=#CC0000;" vertex="1" parent="1">
          <mxGeometry x="200" y="50" width="90" height="110" as="geometry" />
        </mxCell>
        <mxCell id="WJY-mWX5D2TMFrCSwzIJ-2" value="" style="ellipse;whiteSpace=wrap;html=1;fillColor=none;strokeColor=#CC0000;" vertex="1" parent="1">
          <mxGeometry x="405" y="55" width="90" height="110" as="geometry" />
        </mxCell>
        <mxCell id="WJY-mWX5D2TMFrCSwzIJ-3" value="" style="ellipse;whiteSpace=wrap;html=1;fillColor=none;strokeColor=#CC0000;" vertex="1" parent="1">
          <mxGeometry x="700" y="50" width="90" height="110" as="geometry" />
        </mxCell>
        <mxCell id="WJY-mWX5D2TMFrCSwzIJ-4" value="&lt;font style=&quot;font-size: 14px;&quot;&gt;[ 0,&lt;/font&gt;" style="text;html=1;strokeColor=none;fillColor=none;align=center;verticalAlign=middle;whiteSpace=wrap;rounded=0;" vertex="1" parent="1">
          <mxGeometry x="120" y="10" width="60" height="30" as="geometry" />
        </mxCell>
        <mxCell id="WJY-mWX5D2TMFrCSwzIJ-5" value="&lt;font style=&quot;font-size: 14px;&quot;&gt;1,&lt;/font&gt;" style="text;html=1;strokeColor=none;fillColor=none;align=center;verticalAlign=middle;whiteSpace=wrap;rounded=0;" vertex="1" parent="1">
          <mxGeometry x="220" y="10" width="60" height="30" as="geometry" />
        </mxCell>
        <mxCell id="WJY-mWX5D2TMFrCSwzIJ-6" value="&lt;font style=&quot;font-size: 14px;&quot;&gt;2,&lt;/font&gt;" style="text;html=1;strokeColor=none;fillColor=none;align=center;verticalAlign=middle;whiteSpace=wrap;rounded=0;" vertex="1" parent="1">
          <mxGeometry x="320" y="10" width="60" height="30" as="geometry" />
        </mxCell>
        <mxCell id="WJY-mWX5D2TMFrCSwzIJ-7" value="&lt;font style=&quot;font-size: 14px;&quot;&gt;3,&lt;/font&gt;" style="text;html=1;strokeColor=none;fillColor=none;align=center;verticalAlign=middle;whiteSpace=wrap;rounded=0;" vertex="1" parent="1">
          <mxGeometry x="420" y="10" width="60" height="30" as="geometry" />
        </mxCell>
        <mxCell id="WJY-mWX5D2TMFrCSwzIJ-8" value="&lt;font style=&quot;font-size: 14px;&quot;&gt;4,&lt;/font&gt;" style="text;html=1;strokeColor=none;fillColor=none;align=center;verticalAlign=middle;whiteSpace=wrap;rounded=0;" vertex="1" parent="1">
          <mxGeometry x="520" y="10" width="60" height="30" as="geometry" />
        </mxCell>
        <mxCell id="WJY-mWX5D2TMFrCSwzIJ-9" value="&lt;font style=&quot;font-size: 14px;&quot;&gt;5,&lt;/font&gt;" style="text;html=1;strokeColor=none;fillColor=none;align=center;verticalAlign=middle;whiteSpace=wrap;rounded=0;" vertex="1" parent="1">
          <mxGeometry x="620" y="10" width="60" height="30" as="geometry" />
        </mxCell>
        <mxCell id="WJY-mWX5D2TMFrCSwzIJ-10" value="&lt;font style=&quot;font-size: 14px;&quot;&gt;6 ]&lt;/font&gt;" style="text;html=1;strokeColor=none;fillColor=none;align=center;verticalAlign=middle;whiteSpace=wrap;rounded=0;" vertex="1" parent="1">
          <mxGeometry x="720" y="10" width="60" height="30" as="geometry" />
        </mxCell>
      </root>
    </mxGraphModel>
  </diagram>
</mxfile>
